<svg width="97.000000" height="52.000000" viewBox="0 0 97 52" fill="none" xmlns="http://www.w3.org/2000/svg" xmlns:xlink="http://www.w3.org/1999/xlink">
	<desc>
			Created with Pixso.
	</desc>
	<defs/>
	<path id="Fill 1" d="M35.84 0C35.29 0 34.84 0.44 34.84 1L34.84 5.27C34.84 5.82 35.29 6.27 35.84 6.27L72.17 6.27C82.29 6.27 90.25 14.07 90.25 24.16L90.25 24.16C90.25 24.45 90.48 24.68 90.76 24.68L96.03 24.68C96.31 24.68 96.54 24.45 96.54 24.16L96.54 24.16C96.54 10.67 85.7 0 72.17 0L35.84 0Z" fill="#6B7B84" fill-opacity="1.000000" fill-rule="evenodd"/>
	<path id="Fill 1" d="M34.84 5.27C34.84 5.82 35.29 6.27 35.84 6.27L72.17 6.27C82.29 6.27 90.25 14.07 90.25 24.16C90.25 24.45 90.48 24.68 90.76 24.68L96.03 24.68C96.31 24.68 96.54 24.45 96.54 24.16C96.54 10.67 85.7 0 72.17 0L35.84 0C35.29 0 34.84 0.44 34.84 1L34.84 5.27Z" stroke="#80949F" stroke-opacity="1.000000" stroke-width="0.500000"/>
	<path id="Fill 3" d="M6.38 25.11L6.38 25.11C6.38 24.87 6.18 24.68 5.94 24.68L0.43 24.68C0.19 24.68 0 24.87 0 25.11L0 25.11C0 38.76 10.22 50.03 23.44 50.77L65.78 50.81C66.33 50.81 66.78 50.36 66.78 49.81L66.78 45.23C66.78 44.68 66.33 44.23 65.78 44.23L24.9 44.23C14.66 44.2 6.38 35.69 6.38 25.11Z" fill="#6B7B84" fill-opacity="1.000000" fill-rule="evenodd"/>
	<path id="Fill 3" d="M0.43 24.68C0.19 24.68 0 24.87 0 25.11C0 38.76 10.22 50.03 23.44 50.77L65.78 50.81C66.33 50.81 66.78 50.36 66.78 49.81L66.78 45.23C66.78 44.68 66.33 44.23 65.78 44.23L24.9 44.23C14.66 44.2 6.38 35.69 6.38 25.11C6.38 24.87 6.18 24.68 5.94 24.68L0.43 24.68Z" stroke="#80949F" stroke-opacity="1.000000" stroke-width="0.500000"/>
	<path id="Fill 5" d="M27.41 39.2C30.15 39.2 32.43 38.66 34.68 37.57L34.84 37.42L34.84 29.59L34 30.67C32.37 32.44 30.19 33.42 27.73 33.42C23.14 33.42 18.53 30.45 18.53 24.78C18.53 20.49 21.71 15.93 27.57 15.93C28.74 15.93 31.58 16.21 33.99 18.77L34.84 19.81L34.84 12.02L34.69 11.87C32.39 10.72 30.05 10.16 27.38 10.16C22.82 10.16 19.25 11.36 16.41 13.83C14.61 15.38 11.61 18.85 11.61 24.7C11.61 29.02 13.15 32.39 16.44 35.32C19.49 38 22.89 39.2 27.41 39.2Z" fill="#6B7B84" fill-opacity="1.000000" fill-rule="evenodd"/>
	<path id="Fill 5" d="M34.68 37.57L34.84 37.42L34.84 29.59L34 30.67C32.37 32.44 30.19 33.42 27.73 33.42C23.14 33.42 18.53 30.45 18.53 24.78C18.53 20.49 21.71 15.93 27.57 15.93C28.74 15.93 31.58 16.21 33.99 18.77L34.84 19.81L34.84 12.02L34.69 11.87C32.39 10.72 30.05 10.16 27.38 10.16C22.82 10.16 19.25 11.36 16.41 13.83C14.61 15.38 11.61 18.85 11.61 24.7C11.61 29.02 13.15 32.39 16.44 35.32C19.49 38 22.89 39.2 27.41 39.2C30.15 39.2 32.43 38.66 34.68 37.57Z" stroke="#80949F" stroke-opacity="1.000000" stroke-width="0.500000"/>
	<mask id="mask_0_727" fill="white">
		<path id="Fill 6" d="M57.7686 26.5376C56.0122 28.2935 53.4829 29.2256 50.2515 29.2256L47.311 29.2256L47.311 39.2002L40.6523 39.2002L40.6523 10.1631L49.4067 10.1631C52.6885 10.1631 55.0151 10.6406 57.1958 12.5513C59.8555 14.9143 60.2524 18.178 60.2524 19.8513C60.2524 21.415 59.9292 24.3813 57.7686 26.5376ZM47.1855 16.6963L48.5498 16.6963C49.8013 16.6963 51.228 16.7646 52.3076 17.5005C52.8345 17.877 53.7192 18.7488 53.7192 20.332C53.7192 21.502 53.2021 22.551 52.3477 23.2058C51.3086 23.9602 50.083 23.9575 49.0669 23.9553C49.0127 23.9551 48.9585 23.9551 48.9053 23.9551L47.1855 23.9551L47.1855 16.6963Z" clip-rule="evenodd" fill="" fill-opacity="1.000000" fill-rule="evenodd"/>
	</mask>
	<path id="Fill 6" d="M57.7686 26.5376C56.0122 28.2935 53.4829 29.2256 50.2515 29.2256L47.311 29.2256L47.311 39.2002L40.6523 39.2002L40.6523 10.1631L49.4067 10.1631C52.6885 10.1631 55.0151 10.6406 57.1958 12.5513C59.8555 14.9143 60.2524 18.178 60.2524 19.8513C60.2524 21.415 59.9292 24.3813 57.7686 26.5376ZM47.1855 16.6963L48.5498 16.6963C49.8013 16.6963 51.228 16.7646 52.3076 17.5005C52.8345 17.877 53.7192 18.7488 53.7192 20.332C53.7192 21.502 53.2021 22.551 52.3477 23.2058C51.3086 23.9602 50.083 23.9575 49.0669 23.9553C49.0127 23.9551 48.9585 23.9551 48.9053 23.9551L47.1855 23.9551L47.1855 16.6963Z" clip-rule="evenodd" fill="#6B7B84" fill-opacity="1.000000" fill-rule="evenodd" mask="url(#mask_0_727)"/>
	<path id="Fill 6" d="M57.9453 26.7144C57.0356 27.624 55.936 28.311 54.6479 28.7751C53.3521 29.2422 51.8867 29.4756 50.2515 29.4756L47.311 29.4756L47.311 29.2256L47.561 29.2256L47.561 39.4502L40.4023 39.4502L40.4023 9.91309L49.4067 9.91309C50.2793 9.91309 51.0532 9.94824 51.7275 10.0188C52.4771 10.0972 53.1616 10.2244 53.7822 10.4001C54.4429 10.5872 55.062 10.8379 55.6396 11.1523C56.2358 11.4768 56.8096 11.8804 57.3604 12.3633C58.5674 13.4355 59.4336 14.7751 59.959 16.3823C60.1602 16.9966 60.3057 17.637 60.3965 18.3032C60.4673 18.8213 60.5024 19.3372 60.5024 19.8513C60.5024 20.9661 60.355 22.0298 60.061 23.042C59.6343 24.5083 58.9292 25.7324 57.9453 26.7146L57.9453 26.7144ZM57.5923 26.3606C58.5156 25.4392 59.1782 24.2864 59.5806 22.9023C59.8618 21.9358 60.0024 20.9187 60.0024 19.8513C60.0024 19.3599 59.9688 18.8665 59.9009 18.3708C59.8145 17.7344 59.6753 17.1233 59.4839 16.5376C58.9868 15.0164 58.1689 13.7502 57.0308 12.7393C56.5078 12.2808 55.9644 11.8982 55.4009 11.5916C54.8555 11.2949 54.2705 11.0581 53.646 10.8811C53.0532 10.7131 52.3965 10.5916 51.6758 10.5161C51.0181 10.4475 50.2622 10.4131 49.4067 10.4131L40.6523 10.4131L40.6523 10.1631L40.9023 10.1631L40.9023 39.2002L40.6523 39.2002L40.6523 38.9502L47.311 38.9502L47.311 39.2002L47.061 39.2002L47.061 28.9756L50.2515 28.9756C51.8286 28.9756 53.2373 28.752 54.4785 28.3049C55.6968 27.8657 56.7344 27.2178 57.5918 26.3608L57.5923 26.3606ZM47.1855 16.4463L48.5498 16.4463C48.9272 16.4463 49.2529 16.4539 49.5269 16.4688C49.8945 16.489 50.2305 16.5247 50.5347 16.5759C51.2964 16.7041 51.9341 16.9434 52.4482 17.2937C52.8447 17.5771 53.1699 17.9231 53.4233 18.332C53.7871 18.9187 53.9692 19.5854 53.9692 20.332C53.9692 20.9509 53.8389 21.5303 53.5791 22.0706C53.3213 22.6057 52.9619 23.0503 52.5 23.4043L52.4976 23.4062L52.4946 23.4082C52.0044 23.7639 51.4194 23.9983 50.7397 24.1108C50.48 24.1538 50.1909 24.1819 49.8726 24.1951C49.686 24.2026 49.4175 24.2061 49.0664 24.2053L48.9053 24.2051L46.9355 24.2051L46.9355 16.4463L47.1855 16.4463ZM47.1855 16.9463L47.1855 16.6963L47.4355 16.6963L47.4355 23.9551L47.1855 23.9551L47.1855 23.7051L48.9058 23.7051L49.0674 23.7053C49.4116 23.7061 49.6729 23.7026 49.8521 23.6953C50.1499 23.6831 50.4189 23.6572 50.6577 23.6177C51.2603 23.5178 51.7744 23.3132 52.2012 23.0034L52.3477 23.2058L52.1958 23.0073C52.5942 22.7019 52.9053 22.3171 53.1284 21.8538C53.3555 21.3821 53.4692 20.8748 53.4692 20.332C53.4692 19.6802 53.312 19.1013 52.9985 18.5955C52.7803 18.2434 52.5029 17.9473 52.1665 17.707C51.7129 17.3977 51.1411 17.1851 50.4517 17.0688C49.9658 16.9871 49.332 16.9463 48.5498 16.9463L47.1855 16.9463Z" fill="#80949F" fill-opacity="1.000000" fill-rule="nonzero"/>
	<path id="Fill 7" d="M80.22 23.87C78.77 22.59 76.75 21.85 74.46 21.07C72.83 20.51 71.93 20.19 71.33 19.64C70.85 19.24 70.64 18.81 70.64 18.23C70.64 16.96 71.5 15.61 73.91 15.61C75.55 15.61 76.92 16.31 77.99 17.7L78.41 18.24L81.93 13.77L81.61 13.45C79.46 11.3 76.62 10.16 73.41 10.16C66.93 10.16 64.03 14.37 64.03 18.55C64.03 20.79 64.83 22.6 66.41 23.92C67.81 25.13 69.53 25.8 71.17 26.35L71.36 26.42C72.82 26.9 74.33 27.4 75.24 28.21C75.86 28.78 76.14 29.41 76.14 30.24C76.14 32.14 74.65 33.42 72.42 33.42C70.66 33.42 68.34 32.55 67.12 30.13L66.8 29.5L62.42 33.54L62.68 33.91C64.08 35.88 67.22 39.2 72.63 39.2C78.59 39.2 82.75 35.36 82.75 29.88C82.75 26.74 81.37 24.88 80.22 23.87Z" fill="#6B7B84" fill-opacity="1.000000" fill-rule="evenodd"/>
	<path id="Fill 7" d="M74.46 21.07C72.83 20.51 71.93 20.19 71.33 19.64C70.85 19.24 70.64 18.81 70.64 18.23C70.64 16.96 71.5 15.61 73.91 15.61C75.55 15.61 76.92 16.31 77.99 17.7L78.41 18.24L81.93 13.77L81.61 13.45C79.46 11.3 76.62 10.16 73.41 10.16C66.93 10.16 64.03 14.37 64.03 18.55C64.03 20.79 64.83 22.6 66.41 23.92C67.81 25.13 69.53 25.8 71.17 26.35L71.36 26.42C72.82 26.9 74.33 27.4 75.24 28.21C75.86 28.78 76.14 29.41 76.14 30.24C76.14 32.14 74.65 33.42 72.42 33.42C70.66 33.42 68.34 32.55 67.12 30.13L66.8 29.5L62.42 33.54L62.68 33.91C64.08 35.88 67.22 39.2 72.63 39.2C78.59 39.2 82.75 35.36 82.75 29.88C82.75 26.74 81.37 24.88 80.22 23.87C78.77 22.59 76.75 21.85 74.46 21.07Z" stroke="#80949F" stroke-opacity="1.000000" stroke-width="0.500000"/>
</svg>
