<svg width="17.000000" height="17.000000" viewBox="0 0 17 17" fill="none" xmlns="http://www.w3.org/2000/svg" xmlns:xlink="http://www.w3.org/1999/xlink">
	<desc>
			Created with Pixso.
	</desc>
	<defs/>
	<path id="icon" d="M9.53662 8L15.7432 14.2065C16.1333 14.5972 16.1333 15.2305 15.7432 15.6211L15.6211 15.7432C15.2305 16.1333 14.5972 16.1333 14.2065 15.7432L8 9.53662L1.79346 15.7432C1.40332 16.1333 0.77002 16.1333 0.379395 15.7432L0.257324 15.6211C-0.133301 15.2305 -0.133301 14.5972 0.257324 14.2065L6.46387 8L0.257324 1.79346C-0.133301 1.40332 -0.133301 0.77002 0.257324 0.379395L0.379395 0.257324C0.77002 -0.133301 1.40332 -0.133301 1.79346 0.257324L8 6.46387L14.2065 0.257324C14.5972 -0.133301 15.2305 -0.133301 15.6211 0.257324L15.7432 0.379395C16.1333 0.77002 16.1333 1.40332 15.7432 1.79346L9.53662 8Z" clip-rule="evenodd" fill="#FFFFFF" fill-opacity="1.000000" fill-rule="evenodd"/>
</svg>
