<svg width="97.000000" height="51.000000" viewBox="0 0 97 51" fill="none" xmlns="http://www.w3.org/2000/svg" xmlns:xlink="http://www.w3.org/1999/xlink">
	<desc>
			Created with Pixso.
	</desc>
	<defs/>
	<path id="Fill 1" d="M35.57 -0.28C35.01 -0.28 34.57 0.17 34.57 0.72L34.57 5C34.57 5.55 35.01 6 35.57 6L71.89 6C82.02 6 89.97 13.79 89.97 23.89L89.97 23.89C89.97 24.17 90.2 24.4 90.49 24.4L95.75 24.4C96.04 24.4 96.27 24.17 96.27 23.89L96.27 23.89C96.27 10.4 85.43 -0.28 71.89 -0.28L35.57 -0.28Z" fill="#6B7B84" fill-opacity="1.000000" fill-rule="evenodd"/>
	<path id="Fill 1" d="M34.57 5C34.57 5.55 35.01 6 35.57 6L71.89 6C82.02 6 89.97 13.79 89.97 23.89C89.97 24.17 90.2 24.4 90.49 24.4L95.75 24.4C96.04 24.4 96.27 24.17 96.27 23.89C96.27 10.4 85.43 -0.28 71.89 -0.28L35.57 -0.28C35.01 -0.28 34.57 0.17 34.57 0.72L34.57 5Z" stroke="#80949F" stroke-opacity="1.000000" stroke-width="0.500000"/>
	<path id="Fill 3" d="M6.1 24.84L6.1 24.84C6.1 24.6 5.91 24.4 5.66 24.4L0.16 24.4C-0.08 24.4 -0.28 24.6 -0.28 24.84L-0.28 24.84C-0.28 38.49 9.94 49.76 23.16 50.5L65.51 50.53C66.06 50.54 66.51 50.09 66.51 49.53L66.51 44.96C66.51 44.4 66.06 43.96 65.51 43.96L24.62 43.96C14.39 43.93 6.1 35.41 6.1 24.84Z" fill="#6B7B84" fill-opacity="1.000000" fill-rule="evenodd"/>
	<path id="Fill 3" d="M0.16 24.4C-0.08 24.4 -0.28 24.6 -0.28 24.84C-0.28 38.49 9.94 49.76 23.16 50.5L65.51 50.53C66.06 50.53 66.51 50.09 66.51 49.53L66.51 44.96C66.51 44.4 66.06 43.96 65.51 43.96L24.62 43.96C14.39 43.93 6.1 35.41 6.1 24.84C6.1 24.6 5.91 24.4 5.66 24.4L0.16 24.4Z" stroke="#80949F" stroke-opacity="1.000000" stroke-width="0.500000"/>
	<path id="Fill 5" d="M27.14 38.92C29.88 38.92 32.16 38.39 34.41 37.29L34.57 37.15L34.57 29.31L33.72 30.39C32.1 32.17 29.92 33.14 27.46 33.14C22.86 33.14 18.25 30.17 18.25 24.5C18.25 20.22 21.43 15.66 27.29 15.66C28.46 15.66 31.31 15.94 33.72 18.5L34.57 19.54L34.57 11.74L34.42 11.59C32.12 10.44 29.78 9.88 27.11 9.88C22.54 9.88 18.98 11.09 16.14 13.56C14.34 15.11 11.34 18.58 11.34 24.42C11.34 28.74 12.87 32.12 16.16 35.04C19.22 37.72 22.61 38.92 27.14 38.92Z" fill="#6B7B84" fill-opacity="1.000000" fill-rule="evenodd"/>
	<path id="Fill 5" d="M34.41 37.29L34.57 37.15L34.57 29.31L33.72 30.39C32.1 32.17 29.92 33.14 27.46 33.14C22.86 33.14 18.25 30.17 18.25 24.5C18.25 20.22 21.43 15.66 27.29 15.66C28.46 15.66 31.31 15.94 33.72 18.5L34.57 19.54L34.57 11.74L34.42 11.59C32.12 10.44 29.78 9.88 27.11 9.88C22.54 9.88 18.98 11.09 16.14 13.56C14.34 15.11 11.34 18.58 11.34 24.42C11.34 28.74 12.87 32.12 16.16 35.04C19.22 37.72 22.61 38.92 27.14 38.92C29.88 38.92 32.16 38.39 34.41 37.29Z" stroke="#80949F" stroke-opacity="1.000000" stroke-width="0.500000"/>
	<mask id="mask_0_1766" fill="white">
		<path id="Fill 6" d="M57.4937 26.2632C55.7373 28.019 53.208 28.9512 49.9766 28.9512L47.0361 28.9512L47.0361 38.9258L40.3774 38.9258L40.3774 9.88867L49.1318 9.88867C52.4136 9.88867 54.7402 10.3662 56.9209 12.2769C59.5811 14.6396 59.9775 17.9033 59.9775 19.5767C59.9775 21.1406 59.6543 24.1069 57.4937 26.2632ZM46.9106 16.4219L48.2749 16.4219C49.5264 16.4219 50.9531 16.4902 52.0327 17.2261C52.5596 17.6025 53.4443 18.4746 53.4443 20.0576C53.4443 21.2275 52.9272 22.2769 52.0728 22.9316C51.0337 23.686 49.8081 23.6831 48.792 23.6812C48.7378 23.6807 48.6836 23.6807 48.6304 23.6807L46.9106 23.6807L46.9106 16.4219Z" clip-rule="evenodd" fill="" fill-opacity="1.000000" fill-rule="evenodd"/>
	</mask>
	<path id="Fill 6" d="M57.4937 26.2632C55.7373 28.019 53.208 28.9512 49.9766 28.9512L47.0361 28.9512L47.0361 38.9258L40.3774 38.9258L40.3774 9.88867L49.1318 9.88867C52.4136 9.88867 54.7402 10.3662 56.9209 12.2769C59.5811 14.6396 59.9775 17.9033 59.9775 19.5767C59.9775 21.1406 59.6543 24.1069 57.4937 26.2632ZM46.9106 16.4219L48.2749 16.4219C49.5264 16.4219 50.9531 16.4902 52.0327 17.2261C52.5596 17.6025 53.4443 18.4746 53.4443 20.0576C53.4443 21.2275 52.9272 22.2769 52.0728 22.9316C51.0337 23.686 49.8081 23.6831 48.792 23.6812C48.7378 23.6807 48.6836 23.6807 48.6304 23.6807L46.9106 23.6807L46.9106 16.4219Z" clip-rule="evenodd" fill="#6B7B84" fill-opacity="1.000000" fill-rule="evenodd" mask="url(#mask_0_1766)"/>
	<path id="Fill 6" d="M57.6704 26.4399Q56.3057 27.8047 54.373 28.501Q52.4292 29.2012 49.9766 29.2012L47.0361 29.2012L47.0361 28.9512L47.2861 28.9512L47.2861 39.1758L40.1274 39.1758L40.1274 9.63867L49.1318 9.63867Q50.4409 9.63867 51.4526 9.74463Q52.5767 9.86182 53.5073 10.1255Q54.498 10.4062 55.3647 10.8779Q56.2588 11.3647 57.0854 12.0889Q58.8965 13.6973 59.6841 16.1079Q59.9854 17.0293 60.1216 18.0288Q60.2275 18.8057 60.2275 19.5767Q60.2275 21.249 59.7861 22.7676Q59.1465 24.9673 57.6704 26.4399ZM57.3174 26.0859Q58.7021 24.7041 59.3057 22.6279Q59.7275 21.1777 59.7275 19.5767Q59.7275 18.8398 59.626 18.0962Q59.4961 17.1416 59.209 16.2632Q58.4629 13.9814 56.7559 12.4648Q55.9712 11.7773 55.126 11.3174Q54.3081 10.8721 53.3711 10.6069Q52.4814 10.355 51.4009 10.2417Q50.4146 10.1387 49.1318 10.1387L40.3774 10.1387L40.3774 9.88867L40.6274 9.88867L40.6274 38.9258L40.3774 38.9258L40.3774 38.6758L47.0361 38.6758L47.0361 38.9258L46.7861 38.9258L46.7861 28.7012L49.9766 28.7012Q52.3418 28.7012 54.2036 28.0303Q56.0312 27.3721 57.3169 26.0864L57.3174 26.0859ZM46.9106 16.1719L48.2749 16.1719Q48.8408 16.1719 49.252 16.1943Q49.8032 16.2246 50.2598 16.3018Q51.4019 16.4937 52.1733 17.0195Q52.7681 17.4443 53.1484 18.0576Q53.6943 18.938 53.6943 20.0576Q53.6943 20.9858 53.3042 21.7964Q52.918 22.5991 52.2251 23.1299L52.2227 23.1318L52.2197 23.1338Q51.4844 23.6675 50.4648 23.8364Q50.0757 23.9014 49.5977 23.9209Q49.3184 23.9321 48.7915 23.9312L48.6304 23.9307L46.6606 23.9307L46.6606 16.1719L46.9106 16.1719ZM46.9106 16.6719L46.9106 16.4219L47.1606 16.4219L47.1606 23.6807L46.9106 23.6807L46.9106 23.4307L48.6309 23.4307L48.7925 23.4312Q49.3086 23.4321 49.5771 23.4214Q50.0244 23.4028 50.3828 23.3433Q51.2861 23.1938 51.9263 22.729L52.0728 22.9316L51.9209 22.7329Q52.519 22.2749 52.8535 21.5796Q53.1943 20.8721 53.1943 20.0576Q53.1943 19.0801 52.7236 18.3213Q52.396 17.793 51.8916 17.4326Q51.2109 16.9688 50.1768 16.7944Q49.4478 16.6719 48.2749 16.6719L46.9106 16.6719Z" fill="#80949F" fill-opacity="1.000000" fill-rule="nonzero"/>
	<path id="Fill 7" d="M79.95 23.6C78.5 22.31 76.48 21.57 74.19 20.8C72.55 20.23 71.65 19.92 71.05 19.37C70.58 18.97 70.37 18.53 70.37 17.95C70.37 16.69 71.23 15.34 73.64 15.34C75.28 15.34 76.65 16.04 77.71 17.42L78.14 17.97L81.65 13.49L81.33 13.17C79.18 11.02 76.35 9.88 73.14 9.88C66.66 9.88 63.76 14.1 63.76 18.28C63.76 20.52 64.56 22.32 66.13 23.65C67.54 24.85 69.25 25.53 70.9 26.08L71.09 26.14C72.55 26.62 74.06 27.12 74.96 27.93C75.59 28.51 75.87 29.14 75.87 29.97C75.87 31.87 74.37 33.14 72.15 33.14C70.39 33.14 68.07 32.28 66.84 29.86L66.52 29.22L62.15 33.27L62.41 33.63C63.8 35.61 66.95 38.92 72.35 38.92C78.31 38.92 82.48 35.09 82.48 29.6C82.48 26.47 81.1 24.6 79.95 23.6Z" fill="#6B7B84" fill-opacity="1.000000" fill-rule="evenodd"/>
	<path id="Fill 7" d="M74.19 20.8C72.55 20.23 71.65 19.92 71.05 19.37C70.58 18.97 70.37 18.53 70.37 17.95C70.37 16.69 71.23 15.34 73.64 15.34C75.28 15.34 76.65 16.04 77.71 17.42L78.14 17.97L81.65 13.49L81.33 13.17C79.18 11.02 76.35 9.88 73.14 9.88C66.66 9.88 63.76 14.1 63.76 18.28C63.76 20.52 64.56 22.32 66.13 23.65C67.54 24.85 69.25 25.53 70.9 26.08L71.09 26.14C72.55 26.62 74.06 27.12 74.96 27.93C75.59 28.51 75.87 29.14 75.87 29.97C75.87 31.87 74.37 33.14 72.15 33.14C70.39 33.14 68.07 32.28 66.84 29.86L66.52 29.22L62.15 33.27L62.41 33.63C63.8 35.61 66.95 38.92 72.35 38.92C78.31 38.92 82.48 35.09 82.48 29.6C82.48 26.47 81.1 24.6 79.95 23.6C78.5 22.31 76.48 21.57 74.19 20.8Z" stroke="#80949F" stroke-opacity="1.000000" stroke-width="0.500000"/>
</svg>
