<svg width="18.000000" height="18.000000" viewBox="0 0 18 18" fill="none" xmlns="http://www.w3.org/2000/svg" xmlns:xlink="http://www.w3.org/1999/xlink">
	<desc>
			Created with Pixso.
	</desc>
	<defs/>
	<path id="icon" d="M1.76 12.25L4.3 11.96C4.91 11.89 5.51 12.1 5.94 12.52L7.78 14.37C10.61 12.93 12.93 10.62 14.37 7.77L12.52 5.93C12.09 5.5 11.88 4.89 11.95 4.29L12.24 1.77C12.36 0.75 13.21 0 14.23 0L15.96 0C17.09 0 18.03 0.93 17.95 2.06C17.43 10.6 10.6 17.43 2.07 17.95C0.94 18.02 0 17.08 0 15.96L0 14.23C-0.01 13.22 0.75 12.37 1.76 12.25Z" fill="#FFFFFF" fill-opacity="1.000000" fill-rule="evenodd"/>
</svg>
